<svg viewBox="0 0 1200 1200" xmlns:xlink="http://www.w3.org/1999/xlink" xmlns="http://www.w3.org/2000/svg"><defs><style>.cls-1{fill:url(#未命名的渐变_7);}.cls-2{fill:url(#未命渐变_58);}.cls-12{fllurl(未命名渐变_58-2);.cls-13fill:rl(#未名的渐变_53);}.cls-14{fill:url(#未命名的渐变_21);}.cls-15{fill:url(#未命名的渐变_21-2);}.cls-16{fill:url(#未命名的渐变_21-3);}.cls-17{fill:url(#未命名的渐变_21-4);}.cls-18{fill:url(#未命名的渐变_11-6);}.cls-19{fill:url(#未命名的渐变_21-5);}.cls-20{fill:url(#未命名的渐变_11-7);}.cls-21{fill:url(#未命名的渐变_21-6);}.cls-22{fill:url(#未命名的渐变_21-7);}.cls-23{fill:url(#未命名的渐变_21-8);}</style><linearGradient gradientUnits="userSpaceOnUse" y2="678.62" x2="606.56" y1="1061.71" x1="606.56" id="未命名的渐变_7"><stop stop-color="#fff" offset="0.25"></stop><stop stop-color="#fcf2de" offset="1"></stop></linearGradient><linearGradient gradientUnits="userSpaceOnUse" y2="845.34" x2="1054.51" y1="686.2" x1="1054.51" id="未命名的渐变_57"><stop stop-color="#fff" offset="0"></stop><stop stop-color="#e8d3af" offset="0.83"></stop></linearGradient><linearGradient xlink:href="#未命名的渐变_57" y2="837.82" x2="173.07" y1="726.62" x1="173.07" id="未命名的渐变_57-2"></linearGradient><linearGradient gradientUnits="userSpaceOnUse" y2="309.69" x2="197.32" y1="243.13" x1="158.89" id="未命名的渐变_11"><stop stop-color="#fdf2dd" offset="0.02"></stop><stop stop-color="#ddd0b6" offset="1"></stop></linearGradient><linearGradient xlink:href="#未命名的渐变_11" y2="497.4" x2="1097.49" y1="408.24" x1="1046.01" id="未命名的渐变_11-2"></linearGradient><linearGradient xlink:href="#未命名的渐变_11" y2="624.93" x2="1116.91" y1="567.04" x1="1083.49" id="未命名的渐变_11-3"></linearGradient><linearGradient xlink:href="#未命名的渐变_11" y2="673.57" x2="156.24" y1="615.68" x1="122.82" id="未命名的渐变_11-4"></linearGradient><linearGradient xlink:href="#未命名的渐变_11" y2="176.52" x2="693.01" y1="140.91" x1="672.45" id="未命名的渐变_11-5"></linearGradient><linearGradient xlink:href="#未命名的渐变_7" y2="210.92" x2="367.73" y1="159.97" x1="338.31" id="未命名的渐变_7-2"></linearGradient><linearGradient xlink:href="#未命名的渐变_7" y2="237.34" x2="872.19" y1="186.39" x1="842.78" id="未命名的渐变_7-3"></linearGradient><linearGradient gradientUnits="userSpaceOnUse" y2="902.97" x2="929.94" y1="968.23" x1="929.94" id="未命名的渐变_58"><stop stop-color="#fff" offset="0.24"></stop><stop stop-color="#e5c798" offset="0.98"></stop></linearGradient><linearGradient xlink:href="#未命名的渐变_5 x2="173.07" y1="954.26" x1="173.07" id="未命名的渐变_58-2"></linearGradient><linearGradient gradientUnits="userSpaceOnUse" y2="889.5" x2="548.7" y1="1067.48" x1="548.7" id="未命名的渐变_53"><stop stop-color="#fff" offset="0.24"></stop><stop stop-color="#dac49b" offset="0.98"></stop></linearGradient><linearGradient gradientUnits="userSpaceOnUse" y2="800.69" x2="622.36" y1="800.69" x1="590.76" id="未命名的渐变_21"><stop stop-color="#f1e1c5" offset="0.02"></stop><stop stop-color="#ccb48d" offset="1"></stop></linearGradient><linearGradient xlink:href="#未命名的渐变_21" y2="808.34" x2="564.59" y1="808.34" x1="472.01" id="未命名的渐变_21-2"></linearGradient><linearGradient xlink:href="#未命名的渐变_21" y2="808.34" x2="734.3" y1="808.34" x1="641.73" id="未命名的渐变_21-3"></linearGradient><linearGradient xlink:href="#未命名的渐变_21" y2="788.84" x2="614.73" y1="141.16" x1="614.73" id="未命名的渐变_21-4"></linearGradient><linearGradient xlink:href="#未命名的渐变_11" y2="788.84" x2="606.56" y1="157.05" x1="606.56" id="未命名的渐变_11-6"></linearGradient><linearGradient xlink:href="#未命名的渐变_21" y2="885.34" x2="719.46" y1="885.34" x1="501.26" id="未命名的渐变_21-5"></linearGradient><linearGradient xlink:href="#未命名的渐变_11" y2="889.5" x2="704.82" y1="889.5" x1="501.26" id="未命名的渐变_11-7"></linearGradient><linearGradient xlink:href="#未命名的渐变_21" y2="788.84" x2="600.55" y1="157.05" x1="600.55" id="未命名的渐变_21-6"></linearGradient><linearGradient xlink:href="#未命名的渐变_21" y2="788.84" x2="477.6" y1="157.43" x1="477.6" id="未命名的渐变_21-7"></linearGradient><linearGradient xlink:href="#未命名的渐变_21" y2="788.84" x2="725.84" y1="157.13" x1="725.84" id="未命名的渐变_21-8"></linearGradient></defs><title>页面加载中</title><g id="图层_2"><ellipse ry="191.54" rx="502.8" cy="870.17" cx="606.56" class="cls-1"></ellipse><path d="M1099.5,786l-35-92.94a10.65,10.65,0,0,0-19.94,0l-35,92.94a10.65,10.65,0,0,0,10,14.41h28.89V842.8c0,3.39,12.26,3.39,12.26,0V800.45h28.9A10.65,10.65,0,0,0,1099.5,786Z" class="cls-2"></path><path d="M204.51,796.38,180,731.44a7.44,7.44,0,0,0-13.93,0l-24.48,64.94a7.45,7.45,0,0,0,7,10.07h20.19v29.6c0,2.36,8.57,2.36,8.57,0v-29.6h20.19A7.44,7.44,0,0,0,204.51,796.38Z" class="cls-3"></path><polygon points="178.1 232.03 185.88 267.46 216.68 276.41 185.88 285.35 178.1 320.78 170.33 285.35 139.53 276.41 170.33 267.46 178.1 232.03" class="cls-4"></polygon><polygon points="1071.75 393.38 1082.16 440.84 1123.42 452.82 1082.16 464.81 1071.75 512.27 1061.33 464.81 1020.08 452.82 1061.33 440.84 1071.75 393.38" class="cls-5"></polygon><polygon points="1100.2 557.4 1106.96 588.21 1133.74 595.99 1106.96 603.77 1100.2 634.58 1093.44 603.77 1066.65 595.99 1093.44 588.21 1100.2 557.4" class="cls-6"></polygon><polygon points="139.53 606.03 146.29 636.84 173.07 644.62 146.29 652.4 139.53 683.21 132.77 652.4 105.98 644.62 132.77 636.84 139.53 606.03" class="cls-7"></polygon><polygon points="682.73 134.97 686.89 153.93 703.37 158.72 686.89 163.5 682.73 182.46 678.57 163.5 662.09 158.72 678.57 153.93 682.73 134.97" class="cls-8"></polygon><circle r="29.41" cy="185.45" cx="353.02" class="cls-9"></circle><circle r="29.41" cy="211.87" cx="857.48" class="cls-10"></circle><ellipse ry="32.63" rx="70.82" cy="935.6" cx="929.94" class="cls-11"></ellipse><ellipse ry="32.63" rx="70.82" cy="921.63" cx="173.07" class="cls-12"></ellipse><polygon points="627.91 889.5 315.38 1067.48 782.02 1067.48 627.91 889.5" class="cls-13"></polygon><rect height="90.33" width="31.6" y="755.53" x="590.76" class="cls-14"></rect><polygon points="537.04 868.24 472.01 762.61 499.56 748.45 564.59 854.08 537.04 868.24" class="cls-15"></polygon><polygon points="669.28 868.24 641.73 854.08 706.76 748.45 734.3 762.61 669.28 868.24" class="cls-16"></polygon><path d="M498.85,788.84H730.61a59.31,59.31,0,0,0,32.75-9.61c109.27-72.52,184.31-214.64,184.31-333.85,0-168-149.06-304.22-332.94-304.22s-333,136.2-333,304.22c0,119.21,75.05,261.33,184.32,333.85A59.31,59.31,0,0,0,498.85,788.84Z" class="cls-17"></path><path d="M493.52,788.84H719.6a57.88,57.88,0,0,0,31.94-9.37c106.59-70.75,179.79-209.38,179.79-325.66,0-163.9-145.4-296.76-324.77-296.76S281.78,289.91,281.78,453.81c0,116.28,73.21,254.91,179.8,325.66A57.88,57.88,0,0,0,493.52,788.84Z" class="cls-18"></path><path d="M677.54,947.28H543.18c-11.26,0-20.92-7.33-23-17.44l-18.67-91c-1.64-8,5.07-15.39,14-15.39H705.23c8.91,0,15.62,7.39,14,15.39l-18.67,91C698.47,940,688.8,947.28,677.54,947.28Z" class="cls-19"></path><path d="M665.72,947.28H540.37c-10.51,0-19.52-6.84-21.46-16.27l-17.42-84.93c-1.53-7.47,4.74-14.36,13-14.36h177c8.31,0,14.57,6.89,13,14.36L687.17,931C685.23,940.44,676.22,947.28,665.72,947.28Z" class="cls-20"></path><path d="M598.15,157.15c-21.29,57.32-105.67,318.71-7,631.69h26.57c84.44-324.17,8.65-576-10.79-631.78h-.41C603.75,157.05,600.94,157.08,598.15,157.15Z" class="cls-21"></path><path d="M589.89,157.43q-4.5.21-9,.54C153.5,409.15,493.52,788.84,493.52,788.84h30.9C365.66,414.27,539,207.39,589.89,157.43Z" class="cls-22"></path><path d="M621.69,157.38c-2.76-.11-5.52-.2-8.29-.25,50.46,49.41,224.86,256.37,65.78,631.71h30.9S1050.63,408.56,621.69,157.38Z" class="cls-23"></path></g></svg>