<?xml version="1.0" standalone="no"?><!DOCTYPE svg PUBLIC "-//W3C//DTD SVG 1.1//EN" "http://www.w3.org/Graphics/SVG/1.1/DTD/svg11.dtd"><svg t="1754634509298" class="icon" viewBox="0 0 1024 1024" version="1.1" xmlns="http://www.w3.org/2000/svg" p-id="1325" xmlns:xlink="http://www.w3.org/1999/xlink" width="200" height="200"><path d="M637.17 902H384.78c-22.98 0-42.51-16.82-45.9-39.55l-38.62-258.58h421.43l-38.62 258.58c-3.39 22.73-22.92 39.55-45.9 39.55z" fill="#FFEB99" p-id="1326"></path><path d="M637.17 910H384.78c-13.03 0-25.65-4.69-35.52-13.19a54.417 54.417 0 0 1-18.29-33.18l-39.99-267.76h439.99l-39.99 267.76a54.466 54.466 0 0 1-18.29 33.18A54.419 54.419 0 0 1 637.17 910zM309.54 611.87l37.25 249.4c2.79 18.66 19.12 32.74 37.99 32.74h252.39c18.87 0 35.2-14.07 37.99-32.74l37.25-249.4H309.55zM258.3 425.37c-3.66 0-6.97-2.53-7.8-6.25-2.27-10.11-3.41-20.54-3.41-31 0-77.88 63.36-141.25 141.25-141.25 22.73 0 45.33 5.53 65.34 15.99 3.92 2.05 5.43 6.88 3.38 10.8s-6.88 5.43-10.8 3.38c-17.74-9.27-37.77-14.17-57.93-14.17-69.06 0-125.25 56.18-125.25 125.25 0 9.28 1.02 18.53 3.03 27.5 0.97 4.31-1.75 8.59-6.06 9.56-0.59 0.13-1.18 0.2-1.76 0.2z" fill="#510C0C" p-id="1327"></path><path d="M649.48 353.18c-0.95 0-1.91-0.17-2.85-0.53-4.13-1.58-6.19-6.2-4.62-10.33 6.58-17.22 9.92-35.39 9.92-54 0-83.44-67.89-151.33-151.33-151.33-36.16 0-71.15 12.96-98.54 36.48-27.1 23.28-45.15 55.41-50.83 90.47a8.008 8.008 0 0 1-9.18 6.62 8.008 8.008 0 0 1-6.62-9.18c6.28-38.78 26.24-74.31 56.2-100.05 30.29-26.02 68.99-40.34 108.97-40.34 92.26 0 167.33 75.06 167.33 167.33 0 20.57-3.69 40.66-10.97 59.71a8 8 0 0 1-7.47 5.15z" fill="#510C0C" p-id="1328"></path><path d="M768.36 430.71c-0.43 0-0.87-0.03-1.31-0.11a8.007 8.007 0 0 1-6.6-9.19c0.97-5.9 1.46-11.95 1.46-17.98 0-57.69-45.04-105.87-102.53-109.69-4.41-0.29-7.74-4.1-7.45-8.51 0.29-4.41 4.1-7.74 8.51-7.45 65.87 4.38 117.47 59.57 117.47 125.66 0 6.9-0.56 13.82-1.67 20.58-0.64 3.92-4.04 6.7-7.88 6.7z" fill="#510C0C" p-id="1329"></path><path d="M741.98 616.92H280.77c-15.07 0-27.98-10.77-30.67-25.6l-23.98-131.89c-3.48-19.14 11.22-36.75 30.67-36.75h509.17c19.45 0 34.15 17.61 30.67 36.75l-23.98 131.89c-2.7 14.82-15.6 25.6-30.67 25.6z" fill="#FFEB99" p-id="1330"></path><path d="M741.98 624.92H280.77c-18.94 0-35.15-13.53-38.54-32.17l-23.98-131.89c-2.08-11.46 1-23.16 8.47-32.11a39.082 39.082 0 0 1 30.08-14.07h509.17c11.65 0 22.61 5.13 30.08 14.07a39.105 39.105 0 0 1 8.47 32.11l-23.98 131.89c-3.39 18.64-19.6 32.17-38.54 32.17z m-485.2-194.23c-6.89 0-13.38 3.03-17.79 8.33a23.1 23.1 0 0 0-5.01 18.99l23.98 131.89c2 11.03 11.59 19.03 22.8 19.03h461.21c11.21 0 20.79-8 22.8-19.03l23.98-131.89c1.23-6.78-0.59-13.7-5.01-18.99s-10.9-8.33-17.79-8.33H256.78zM385.36 833.82a7.99 7.99 0 0 1-5.75-2.44c-3.07-3.18-2.99-8.24 0.19-11.31l182.81-176.86c3.18-3.07 8.24-2.99 11.31 0.19 3.07 3.18 2.99 8.24-0.19 11.31L390.92 831.57a7.98 7.98 0 0 1-5.56 2.25zM476.9 875.83a7.99 7.99 0 0 1-5.75-2.44c-3.07-3.18-2.99-8.24 0.19-11.31l182.81-176.86c3.18-3.07 8.24-2.99 11.31 0.19 3.07 3.18 2.99 8.24-0.19 11.31L482.46 873.58a7.98 7.98 0 0 1-5.56 2.25z" fill="#510C0C" p-id="1331"></path><path d="M538.19 878.43a7.99 7.99 0 0 1-5.75-2.44L355.58 693.18c-3.07-3.18-2.99-8.24 0.19-11.31s8.24-2.99 11.31 0.19l176.86 182.81c3.07 3.18 2.99 8.24-0.19 11.31a7.98 7.98 0 0 1-5.56 2.25zM642.8 841.68a7.99 7.99 0 0 1-5.75-2.44L460.19 656.43c-3.07-3.18-2.99-8.24 0.19-11.31s8.24-2.99 11.31 0.19l176.86 182.81c3.07 3.18 2.99 8.24-0.19 11.31a7.98 7.98 0 0 1-5.56 2.25z" fill="#510C0C" p-id="1332"></path><path d="M722.72 478.43h-422c-4.42 0-8-3.58-8-8s3.58-8 8-8h422c4.42 0 8 3.58 8 8s-3.58 8-8 8z" fill="#FFFFFF" p-id="1333"></path></svg>