<svg width="24" height="24" viewBox="0 0 24 24" fill="none" xmlns="http://www.w3.org/2000/svg">
    <path d="M20 12.23C19.69 15.31 17.14 17.7 14.04 17.97C10.55 18.27 7.48 15.37 7.79 11.89C8.06 8.79 10.96 6.42 14.05 6.74C15.64 6.89 17.03 7.66 18 8.77C16.81 8.26 15.48 8 14.11 8C9.58 8 5.99 11.58 6 16.11C6.01 19.07 7.9 21.68 10.58 22.8C7.12 21.48 4.74 18.08 4.99 14.15C5.28 9.42 9.23 5.69 13.96 6C17.89 6.25 21.28 8.63 22.6 12.09C21.97 12.03 21.33 12 20.69 12C20.46 12 20.23 12.01 20 12.03V12.23Z"
          fill="#94A3B8" stroke="#64748B" stroke-width="1.5"/>
    <circle cx="17" cy="9" r="1" fill="#F8FAFC"/>
</svg>
